<svg id="Foreground" xmlns="http://www.w3.org/2000/svg" viewBox="0 0 105.8 19.26"><defs><style>.cls-1{fill:#fff;}.cls-2{fill:#939598;}</style></defs><title>TypeNetwork-LogoType_MSD-100_18pt-30-24</title><path class="cls-1" d="M5.74,4V15.57H3.94V4H0.18V2.43H9.6V4H5.74Z"/><path class="cls-1" d="M12.69,17.06A3.07,3.07,0,0,1,8.6,18.94l0.49-1.51a1.69,1.69,0,0,0,.74.18c0.58,0,1-.32,1.55-1.31l0.68-1.37L8.26,6.78h1.82l2.86,6.39,2.92-6.39h1.75Z"/><path class="cls-1" d="M18.13,6.78h1.57v2A3.28,3.28,0,0,1,23,6.58c2.38,0,4,1.76,4,4.45,0,2.9-1.89,4.66-4,4.66a3.29,3.29,0,0,1-3.21-1.93v5.35H18.13V6.78Zm4.48,7.54c1.51,0,2.65-1.28,2.65-3.21s-1-3.19-2.72-3.19c-1.58,0-2.79,1.12-2.79,3.28S21,14.33,22.61,14.33Z"/><path class="cls-1" d="M32.74,15.77A4.36,4.36,0,0,1,28,11.21a4.54,4.54,0,0,1,4.59-4.66C35.28,6.55,37,8.42,37,11.7h-7.4a2.77,2.77,0,0,0,3.06,2.61,3.42,3.42,0,0,0,2.84-1.19l1,1.08A4.69,4.69,0,0,1,32.74,15.77Zm2.63-5.35A2.6,2.6,0,0,0,32.56,8a2.78,2.78,0,0,0-2.88,2.45h5.69Z"/><path class="cls-2" d="M48.26,15.57L40.52,5.63v9.94H38.81V2.43h1.37l7.67,9.87V2.43h1.67V15.57H48.26Z"/><path class="cls-2" d="M55.82,15.77a4.36,4.36,0,0,1-4.72-4.56,4.54,4.54,0,0,1,4.59-4.66c2.66,0,4.43,1.87,4.43,5.15h-7.4a2.77,2.77,0,0,0,3.06,2.61,3.42,3.42,0,0,0,2.84-1.19l1,1.08A4.69,4.69,0,0,1,55.82,15.77Zm2.63-5.35A2.61,2.61,0,0,0,55.64,8a2.78,2.78,0,0,0-2.88,2.45h5.69Z"/><path class="cls-2" d="M65.88,15.39a2.93,2.93,0,0,1-1.44.29,2.32,2.32,0,0,1-2.58-2.49v-5h-1.3V6.78h1.3V4.6l1.67-.22v2.4h2.11V8.22H63.54V13a1.08,1.08,0,0,0,1.19,1.24,2.43,2.43,0,0,0,1-.23Z"/><path class="cls-2" d="M72.61,10l-2.38,5.58h-1L66.13,6.78H67.9L70,13.08l2.21-5.4h1L75.26,13l2.07-6.27h1.6L75.8,15.62h-1Z"/><path class="cls-2" d="M83.63,15.77A4.47,4.47,0,0,1,79,11.21a4.66,4.66,0,0,1,4.59-4.66A4.46,4.46,0,0,1,88.36,11,4.69,4.69,0,0,1,83.63,15.77Zm0.07-1.48a3,3,0,0,0,2.93-3.22,2.94,2.94,0,1,0-5.87.13A2.87,2.87,0,0,0,83.7,14.29Z"/><path class="cls-2" d="M95.37,8.57A2.5,2.5,0,0,0,93.73,8a2.4,2.4,0,0,0-2.32,2.43v5.11H89.73V6.78H91.3V8.62a3.07,3.07,0,0,1,3-2.05,2.85,2.85,0,0,1,1.82.54Z"/><path class="cls-2" d="M103.84,15.57l-3.26-4-1.69,1.78v2.25H97.22V1.79h1.64v9.72l4.27-4.74H105l-3.33,3.6,4.12,5.17Z"/></svg>